<svg xmlns="http://www.w3.org/2000/svg" id="Capa_1" data-name="Capa 1" viewBox="0 0 1079.72 1080.15"><defs><style>.cls-1{fill:#fff}</style></defs><title>instagram_icon</title><path d="M244.43-.15C106.42-.15-.3,101-.3,248.41v583C-.3,978.84,106.42,1080,244.43,1080H834.7c138,0,244.73-101.16,244.73-248.56v-583C1079.43,101,972.71-.15,834.7-.15ZM539.57,878.37c-186.62,0-338.45-151.83-338.45-338.44S353,201.48,539.57,201.48,878,353.31,878,539.93,726.19,878.37,539.57,878.37ZM978.83,187.14A85.84,85.84,0,1,1,893,101.3,85.84,85.84,0,0,1,978.83,187.14Z" class="cls-1" transform="translate(0.3 0.15)"/><circle cx="539.86" cy="540.07" r="221.68" class="cls-1"/></svg>