<svg id="Capa_1" data-name="Capa 1" xmlns="http://www.w3.org/2000/svg" viewBox="0 0 1310.8 768"><title>logo_nosikl</title><path d="M1009.64,682.27c7.41-69.45,13.33-139.52,16.76-209.24,1.64-34.86,2.67-69.75,1.9-104.19-.45-17.17-1.28-34.35-3.4-50.67a145.38,145.38,0,0,0-4.57-22.75,34.09,34.09,0,0,0-3.11-7.43c-.31-.48-.61-.69.4.14.73.52,3.5,1.66,5.22,1.37a3.22,3.22,0,0,0,1.11-.17c.32-.1.42,0,.63-.13.48-.27.35-.15.35-.15a10.77,10.77,0,0,0-1.77,1.46,50.49,50.49,0,0,0-5.95,7.32,168.67,168.67,0,0,0-11.59,20.63c-7.2,14.91-13.54,30.88-19.43,47.05-11.77,32.41-22,65.81-31.57,99.37-19,67.19-35.83,135.48-50.93,203.71l-33.87-6c9.85-70.76,18-142.25,23-213.45,2.38-35.59,4.08-71.28,3.19-106.34-.52-17.42-1.58-35-4.82-50.78a91.49,91.49,0,0,0-2.94-10.91,26.38,26.38,0,0,0-3.46-6.95c-.42-.63-.44-.29.16-.16.6.53,1.87.42,2.21.48,1-.29-1.1.28-3.24,2.23-4.54,3.76-9.62,10.39-14.09,17.14-4.52,6.9-8.76,14.34-12.8,22-8,15.33-15.36,31.4-22.26,47.71-13.78,32.65-26.12,66.21-37.82,100C773.66,531.16,752.68,600,733.48,668.91L705.88,768,704,665.28c-.82-44.25-2.17-88.66-4-132.93S695.65,443.8,691.52,400c-1-10.94-2.26-21.82-3.7-32.58a282.92,282.92,0,0,0-5.64-31.09c-.6-2.4-1.31-4.61-2-6.53-.35-.86-.71-1.75-1-2.19s-.51-.6.49.34a14.2,14.2,0,0,0,1.45,1.09,17,17,0,0,0,2.61,1.09,9.48,9.48,0,0,0,1.89.33,7.37,7.37,0,0,0,.94,0c.23,0,.13,0,.21,0a1.23,1.23,0,0,0,.47,0c1-.31.21.05,0,.06l-2,1.06-2.52,1.75c-7.22,5.5-14.77,13.33-21.86,21.24-28.43,32.32-54.35,68.73-79.11,104.87l-27.49,40.13,2.51-48.45c1.79-34.64,2.6-69.74,2.11-104.46-.28-17.37-.91-34.71-2.25-51.84s-3.34-34.29-7.62-49.36a59.34,59.34,0,0,0-3.76-9.91c-1.27-2.73-3.28-4.06-2-3.29a3,3,0,0,0,1.22.23,4.1,4.1,0,0,0,1.6-.12c.73-.32.41-.07.6-.16a12.55,12.55,0,0,0-2,1.53,67.1,67.1,0,0,0-7.36,8c-10,12.62-19,27.58-27.48,42.49-17,30.09-32.17,61.52-46.33,93.34s-27.14,64.24-38.68,97.05-21.7,66.11-28.26,99.66c-3.13,16.71-5.47,33.68-4.84,49.59.35,7.86,1.7,15.46,4.25,21,2.91,5.34,5.54,7.54,11,8.12a22.24,22.24,0,0,0,16.18-4.82c4.87-4,9.21-10,12.66-16.86,6.86-14,10.8-30.51,13.46-47.15,5.18-33.52,5.57-68.35,4-102.9A834.94,834.94,0,0,0,441.89,378c-6.09-34-13.87-68.18-26.56-99.43a150.11,150.11,0,0,0-11-21.88,59.56,59.56,0,0,0-6.72-8.75c-2.32-2.4-4.77-4.11-6.39-4.59s-2.41-.44-4.85.7a30.32,30.32,0,0,0-7.54,5.94c-5.15,5.34-9.86,12.22-14.18,19.31-8.62,14.35-16,30-22.75,45.91s-13,32.2-18.91,48.59c-11.77,32.84-22.32,66.23-32.27,99.82C270.92,530.77,253.27,598.82,237.42,667l-18.35-3.42c10.51-72.13,19.17-144.82,24.84-217.5,2.74-36.34,4.73-72.76,4.55-109a464.84,464.84,0,0,0-3-53.79,159.74,159.74,0,0,0-5.06-25.49,57.72,57.72,0,0,0-4.52-10.9c-1.78-3.19-4-5.35-5.63-5.89s-3.75-.53-6.42.84a30.35,30.35,0,0,0-8.11,6.84c-5.25,6-9.74,13.55-13.73,21.34-8,15.69-14.36,32.63-20.14,49.73-11.47,34.31-20.53,69.66-28.8,105.15-16.32,71.06-29.41,143.1-40.4,215.21l-14.07-1.79q8.55-77.28,14.86-154.91c4-51.68,7.66-103.52,7.76-155.09-.06-12.87-.35-25.75-1.58-38.32a99.56,99.56,0,0,0-3.13-17.91,25.67,25.67,0,0,0-1.37-3.52c-.46-.82-1.11-1.57-.76-1.19,0,0,.79.33.91.17a2.26,2.26,0,0,0-.63.14,8.36,8.36,0,0,0-2.41,1.4c-3.81,3-7.51,8.24-10.7,13.43s-6.18,10.89-9,16.62c-5.53,11.47-10.46,23.37-15.13,35.37-18.41,48.18-33.44,98-47.21,147.83L28,490.57S48,379.35,66.44,330.34C71.13,318.12,76.08,306,81.78,294c2.85-6,5.92-11.9,9.43-17.71s7.26-11.59,13.58-16.79a19.88,19.88,0,0,1,6-3.35,14.24,14.24,0,0,1,4.13-.76,10.48,10.48,0,0,1,5.51,1.44c3.25,1.95,4.32,4.15,5.52,6.08a37.77,37.77,0,0,1,2.23,5.52A109.66,109.66,0,0,1,132,288.8c1.36,13.29,1.71,26.41,1.84,39.51.16,52.36-3.25,104.3-7,156.2Q120.92,562.36,112.69,640l-14.08-1.79c10.7-72.68,23.44-144.88,39.52-216.62C146.3,385.72,155.24,350,166.8,314.8c5.86-17.58,12.28-35.06,20.81-52.06,4.33-8.48,9.12-16.88,15.87-24.74a46.17,46.17,0,0,1,12.85-10.63c5.34-2.89,13-4.37,20-1.57s11,8.15,13.77,12.8a73.2,73.2,0,0,1,6.13,14.34A175,175,0,0,1,262,281.2,481.78,481.78,0,0,1,265.45,337c.37,37-1.46,73.76-4,110.43-5.35,73.34-13.64,146.17-23.87,219L219.2,663c15.63-68.86,33-137.1,52.55-204.94,9.86-33.89,20.33-67.64,32.12-101.07,5.94-16.7,12.16-33.34,19.09-49.8s14.43-32.78,23.84-48.64c4.8-7.91,9.94-15.74,16.94-23.13a50.83,50.83,0,0,1,13.18-10.17,28.23,28.23,0,0,1,9.68-3.05,20,20,0,0,1,5.57-.07,19.55,19.55,0,0,1,5.35,1.09c6.79,2.2,11.42,6.15,15.25,9.95a80.34,80.34,0,0,1,9.42,12.05A168.51,168.51,0,0,1,435,270.27c14,33.93,21.93,68.79,28.43,103.85a857.21,857.21,0,0,1,12.33,106.11c1.76,35.62,1.63,71.51-3.73,107.58-2.85,18-6.8,36.17-15.34,53.92-4.39,8.79-10.19,17.65-19,24.86a49.12,49.12,0,0,1-15.47,8.19,45.75,45.75,0,0,1-17.61,1.7c-6-.63-12.64-2.53-18-6.67a41.06,41.06,0,0,1-11.82-14.47c-4.85-10.47-6.18-20.6-6.75-30.23-.83-19.29,1.75-37.39,5-55.22,6.77-35.53,17.13-69.67,28.67-103.29s24.69-66.59,38.9-99.1,29.55-64.53,47-95.8c8.85-15.64,17.85-31,29.59-46.1a91.62,91.62,0,0,1,10.49-11.37,33.82,33.82,0,0,1,8.82-5.86,16.28,16.28,0,0,1,3.68-1.28,25.36,25.36,0,0,1,4.84-.59,23.15,23.15,0,0,1,7.67,1.46,26.71,26.71,0,0,1,10.43,7.52,42.56,42.56,0,0,1,5.38,8,83,83,0,0,1,5.76,14.63c5.38,18.8,7.23,36.69,8.88,54.67s2.23,35.74,2.61,53.52c.67,35.59,0,70.85-1.61,106.45l-25-8.33c12.57-18.76,25.38-37,38.69-55.14s27-36,42.25-53.21c7.74-8.62,15.49-17.08,25.9-25.18l4.32-3c1.77-1,3.34-2,5.37-2.92,2.42-.91,4.15-1.89,8-2.36l2.53-.27a6.57,6.57,0,0,1,.72,0l1.45.12a20.43,20.43,0,0,1,2.91.54,14.84,14.84,0,0,1,4.48,1.94,17.57,17.57,0,0,1,3.11,2.32,26.45,26.45,0,0,1,5.3,7.1,50,50,0,0,1,2.46,5.41,98.07,98.07,0,0,1,3,9.38A307.67,307.67,0,0,1,716,363.52c1.57,11.27,2.87,22.48,4,33.67,4.45,44.73,7,89.27,9.22,133.83s3.69,89,4.75,133.71l-29.5-3.64c19.09-69.89,39.76-139,63-207.66,11.67-34.3,24-68.43,38.06-102.19,7.05-16.88,14.56-33.66,23.15-50.26,4.34-8.3,9-16.55,14.26-24.73,5.51-8.17,11.08-16.33,20.27-24.29,4.68-3.76,10.56-8.31,20.54-9.61a28.43,28.43,0,0,1,15.35,2.59,33.11,33.11,0,0,1,10.45,8.42,56.23,56.23,0,0,1,9.16,16.75A120.11,120.11,0,0,1,923,285.22c4.07,19.54,5.11,38,5.8,56.57,1.11,36.93-.46,73.27-2.7,109.52-4.74,72.48-12.51,144.21-22.15,216.13l-33.88-6c15-69.28,31.44-137.84,50.43-206.19,9.59-34.14,19.76-68.17,31.84-102,6.08-16.92,12.62-33.75,20.63-50.58a201.48,201.48,0,0,1,14.18-25.38,85.07,85.07,0,0,1,10.73-13.08,45.75,45.75,0,0,1,8.58-6.66,31.5,31.5,0,0,1,6.31-2.94,30.84,30.84,0,0,1,3.77-1.09c1.45-.25,2.92-.44,4.39-.55a27.92,27.92,0,0,1,17.57,5,35.12,35.12,0,0,1,9.33,9.73,67.83,67.83,0,0,1,7.56,16.61,178.87,178.87,0,0,1,6.08,28.89c2.5,18.57,3.41,36.6,4,54.6,1,35.93.1,71.44-1.39,106.88-3.14,70.9-8.71,141.19-15.87,211.75Z" transform="translate(-28)"/><polygon points="868.84 163.18 1007.35 0 900.52 185.47 868.84 163.18"/><polygon points="1112.8 384.97 1239.78 180.78 1147.24 402.71 1112.8 384.97"/><polygon points="1310.8 529.42 1013.47 485.38 1021.6 447.5 1310.8 529.42"/></svg>