<svg id="Capa_1" data-name="Capa 1" xmlns="http://www.w3.org/2000/svg" viewBox="0 0 1310.8 767.54"><defs><style>.cls-1{fill:#fff;}</style></defs><title>nosik_logo_white</title><path class="cls-1" d="M876,727.81c7.41-69.45,13.33-139.52,16.76-209.24,1.64-34.86,2.67-69.75,1.9-104.19-.45-17.17-1.28-34.35-3.4-50.67A144.58,144.58,0,0,0,886.66,341a34.07,34.07,0,0,0-3.11-7.43c-.31-.48-.61-.69.4.14.73.52,3.5,1.66,5.22,1.37a3.18,3.18,0,0,0,1.11-.17c.32-.1.42,0,.63-.13.48-.27.35-.15.35-.15a10.74,10.74,0,0,0-1.77,1.46,51,51,0,0,0-6,7.32A169.66,169.66,0,0,0,872,364c-7.2,14.91-13.54,30.88-19.43,47.05-11.77,32.41-22,65.81-31.57,99.37C802,577.61,785.12,645.9,770,714.13l-33.87-6c9.85-70.76,18-142.25,23-213.45,2.38-35.59,4.08-71.28,3.19-106.34-.52-17.42-1.58-35-4.82-50.78a89.61,89.61,0,0,0-2.94-10.91,26.26,26.26,0,0,0-3.46-6.95c-.42-.63-.44-.29.16-.16.6.53,1.87.42,2.21.48,1-.29-1.1.28-3.24,2.23-4.54,3.76-9.62,10.39-14.09,17.14-4.52,6.9-8.76,14.34-12.8,22-8,15.33-15.36,31.4-22.26,47.71-13.78,32.65-26.12,66.21-37.82,100C640,576.7,619,645.54,599.81,714.45l-27.6,99.09-1.88-102.72c-.82-44.25-2.17-88.66-4-132.93s-4.35-88.55-8.48-132.35c-1-10.94-2.26-21.82-3.7-32.58a282.53,282.53,0,0,0-5.64-31.09c-.6-2.4-1.31-4.61-2-6.53a15.88,15.88,0,0,0-1-2.19c-.29-.44-.51-.6.49.34a15.25,15.25,0,0,0,1.45,1.09,16.54,16.54,0,0,0,2.61,1.09A10.11,10.11,0,0,0,552,376a7.37,7.37,0,0,0,.94,0h.21a1.24,1.24,0,0,0,.47,0c1-.31.21.05,0,.06l-2,1.06-2.52,1.75c-7.22,5.5-14.77,13.33-21.86,21.24-28.43,32.32-54.35,68.73-79.11,104.87l-27.49,40.13,2.51-48.45c1.79-34.64,2.6-69.74,2.11-104.46-.28-17.37-.91-34.71-2.25-51.84s-3.34-34.29-7.62-49.36a58.4,58.4,0,0,0-3.76-9.91c-1.27-2.73-3.28-4.06-2-3.29a3,3,0,0,0,1.22.23,4.11,4.11,0,0,0,1.6-.12c.73-.32.41-.07.6-.16a12.77,12.77,0,0,0-2,1.53,68,68,0,0,0-7.36,8c-10,12.62-19,27.58-27.48,42.49-17,30.09-32.17,61.52-46.33,93.34s-27.14,64.24-38.68,97-21.7,66.11-28.26,99.66c-3.13,16.71-5.47,33.68-4.84,49.59.35,7.86,1.7,15.46,4.25,21,2.91,5.34,5.54,7.54,11,8.12a22.25,22.25,0,0,0,16.18-4.82c4.87-4,9.21-10,12.66-16.86,6.86-14,10.8-30.51,13.46-47.15,5.18-33.52,5.57-68.35,4-102.9a832.46,832.46,0,0,0-11.38-103.26c-6.09-34-13.87-68.18-26.56-99.43a149.26,149.26,0,0,0-11-21.88,58.76,58.76,0,0,0-6.72-8.75c-2.32-2.4-4.77-4.11-6.39-4.59s-2.41-.44-4.85.7a30.53,30.53,0,0,0-7.54,5.94c-5.15,5.34-9.86,12.22-14.18,19.31-8.62,14.35-16,30-22.75,45.91s-13,32.2-18.91,48.59c-11.77,32.84-22.32,66.23-32.27,99.82-19.8,67.15-37.45,135.2-53.3,203.38L85.4,709.12C95.91,637,104.57,564.3,110.24,491.62c2.74-36.34,4.73-72.76,4.55-109a464.87,464.87,0,0,0-3-53.79,159.25,159.25,0,0,0-5.06-25.49,57.34,57.34,0,0,0-4.52-10.9c-1.78-3.19-4-5.35-5.63-5.89a8.11,8.11,0,0,0-6.42.84,30.44,30.44,0,0,0-8.11,6.84c-5.25,6-9.74,13.55-13.73,21.34-8,15.69-14.36,32.63-20.14,49.73C36.71,399.61,27.65,435,19.38,470.45,3.06,541.51-10,613.55-21,685.66l-14.07-1.79Q-26.54,606.59-20.23,529c4-51.68,7.66-103.52,7.76-155.09-.06-12.87-.35-25.75-1.58-38.32a98.92,98.92,0,0,0-3.13-17.91,24.66,24.66,0,0,0-1.37-3.52c-.46-.82-1.11-1.57-.76-1.19,0,0,.79.33.91.17a2.38,2.38,0,0,0-.63.14,8.44,8.44,0,0,0-2.41,1.4c-3.81,3-7.51,8.24-10.7,13.43s-6.18,10.89-9,16.62c-5.53,11.47-10.46,23.37-15.13,35.37-18.41,48.18-33.44,98-47.21,147.83l-2.19,8.22s20-111.22,38.44-160.23c4.69-12.22,9.64-24.34,15.34-36.34a199.85,199.85,0,0,1,9.43-17.71C-38.95,316-35.2,310.24-28.88,305a19.79,19.79,0,0,1,6-3.35,14.21,14.21,0,0,1,4.13-.76,10.44,10.44,0,0,1,5.51,1.44c3.25,1.95,4.32,4.15,5.52,6.08A36.63,36.63,0,0,1-5.49,314a108.4,108.4,0,0,1,3.82,20.37C-.31,347.63,0,360.75.17,373.85c.16,52.36-3.25,104.3-7,156.2Q-12.74,607.9-21,685.54l-14.08-1.79c10.7-72.68,23.44-144.88,39.52-216.62,8.17-35.87,17.11-71.59,28.67-106.79,5.86-17.58,12.28-35.06,20.81-52.06,4.33-8.48,9.12-16.88,15.87-24.74a46.32,46.32,0,0,1,12.85-10.63c5.34-2.89,13-4.37,20-1.57s11,8.15,13.77,12.8a72.85,72.85,0,0,1,6.13,14.34,174.65,174.65,0,0,1,5.77,28.26,481.87,481.87,0,0,1,3.45,55.8c.37,37-1.46,73.76-4,110.43-5.35,73.34-13.64,146.17-23.87,219l-18.38-3.43c15.63-68.86,33-137.1,52.55-204.94,9.86-33.89,20.33-67.64,32.12-101.07,5.94-16.7,12.16-33.34,19.09-49.8s14.43-32.78,23.84-48.64c4.8-7.91,9.94-15.74,16.94-23.13a50.93,50.93,0,0,1,13.18-10.17,28.28,28.28,0,0,1,9.68-3.05,20,20,0,0,1,5.57-.07,19.51,19.51,0,0,1,5.35,1.09c6.79,2.2,11.42,6.15,15.25,9.95a80.07,80.07,0,0,1,9.42,12.05,168.39,168.39,0,0,1,12.81,25.05c14,33.93,21.93,68.79,28.43,103.85a855.75,855.75,0,0,1,12.33,106.11c1.76,35.62,1.63,71.51-3.73,107.58-2.85,18-6.8,36.17-15.34,53.92-4.39,8.79-10.19,17.65-19,24.86a49.07,49.07,0,0,1-15.47,8.19,45.76,45.76,0,0,1-17.61,1.7c-6-.63-12.64-2.53-18-6.67a41.07,41.07,0,0,1-11.82-14.47c-4.85-10.47-6.18-20.6-6.75-30.23-.83-19.29,1.75-37.39,5-55.22,6.77-35.53,17.13-69.67,28.67-103.29s24.69-66.59,38.9-99.1,29.55-64.53,47-95.8c8.85-15.64,17.85-31,29.59-46.1A91.81,91.81,0,0,1,394,259.77a34.07,34.07,0,0,1,8.82-5.86,16.55,16.55,0,0,1,3.68-1.28,25.41,25.41,0,0,1,4.84-.59A23.09,23.09,0,0,1,419,253.5,26.66,26.66,0,0,1,429.46,261a42.29,42.29,0,0,1,5.38,8,82.52,82.52,0,0,1,5.76,14.63c5.38,18.8,7.23,36.69,8.88,54.67s2.23,35.74,2.61,53.52c.67,35.59,0,70.85-1.61,106.45l-25-8.33c12.57-18.76,25.38-37,38.69-55.14s27-36,42.25-53.21c7.74-8.62,15.49-17.08,25.9-25.18l4.32-3c1.77-1,3.34-2,5.37-2.92,2.42-.91,4.15-1.89,8-2.36l2.53-.27h.63l1.54.13a20.17,20.17,0,0,1,2.91.54,14.89,14.89,0,0,1,4.48,1.94,17.24,17.24,0,0,1,3.11,2.32,26.15,26.15,0,0,1,5.3,7.1,48.76,48.76,0,0,1,2.46,5.41,96.49,96.49,0,0,1,3,9.38,306,306,0,0,1,6.36,34.37c1.57,11.27,2.87,22.48,4,33.67,4.45,44.73,7,89.27,9.22,133.83s3.69,89,4.75,133.71l-29.5-3.64c19.09-69.89,39.76-139,63-207.66,11.67-34.3,24-68.43,38.06-102.19,7-16.88,14.56-33.66,23.15-50.26,4.34-8.3,9-16.55,14.26-24.73,5.51-8.17,11.08-16.33,20.27-24.29,4.68-3.76,10.56-8.31,20.54-9.61a28.48,28.48,0,0,1,15.35,2.59,33.06,33.06,0,0,1,10.45,8.42A56,56,0,0,1,785,315.65a120.35,120.35,0,0,1,4.29,15.11c4.07,19.54,5.11,38,5.8,56.57,1.11,36.93-.46,73.27-2.7,109.52-4.74,72.48-12.51,144.21-22.15,216.13l-33.88-6c15-69.28,31.44-137.84,50.43-206.19,9.59-34.14,19.76-68.17,31.84-102,6.08-16.92,12.62-33.75,20.63-50.58a202,202,0,0,1,14.18-25.38,85.28,85.28,0,0,1,10.73-13.08,46.1,46.1,0,0,1,8.58-6.66,35.26,35.26,0,0,1,10.08-4c1.45-.25,2.92-.44,4.39-.55a27.92,27.92,0,0,1,17.57,5,35,35,0,0,1,9.33,9.73,67.72,67.72,0,0,1,7.56,16.61,178.15,178.15,0,0,1,6.08,28.89c2.5,18.57,3.41,36.6,4,54.6,1,35.93.1,71.44-1.39,106.88-3.14,70.9-8.71,141.19-15.87,211.75Z" transform="translate(105.67 -46)"/><polygon class="cls-1" points="868.84 163.18 1007.35 0 900.52 185.47 868.84 163.18"/><polygon class="cls-1" points="1112.8 384.97 1239.78 180.78 1147.24 402.71 1112.8 384.97"/><polygon class="cls-1" points="1310.8 529.42 1013.47 485.38 1021.6 447.5 1310.8 529.42"/></svg>