<svg id="Capa_1" data-name="Capa 1" xmlns="http://www.w3.org/2000/svg" viewBox="0 0 956.57 1080"><defs><style>.cls-1{fill:#fff;}</style></defs><title>tiktok_icon</title><g id="Logo_tiktok" data-name="Logo tiktok"><path class="cls-1" d="M986.67,286.3h0V247.08S918.75,251,850.35,206.33c-40.64-46.16-59.5-101.51-59.76-161.73H743.05A271.94,271.94,0,0,1,739.23,0H560.79V656.33c0,7.47.91,40.54-1.46,66.67-3.86,42.68-31.39,91.6-78,116.11-51.86,27.24-102.79,21.34-142.22-.14a123.51,123.51,0,0,1-19.43-38.49C311.69,772.75,299,722.1,340.15,663c18.8-26.95,78.33-80,166.85-54.68V427.27s-20-3.85-51.35-3h0V382.67s-177-34-303.47,122.75C42.41,641.45,57.74,862.51,217,973.54h0c25.35,27.36,56.55,51.15,93.74,69.74C453.53,1114.64,588.93,1070,663.67,1011c117.51-92.74,127.2-219.77,127.2-247V390.1S893.28,468.48,1038,468.48V291.68S1017.05,292.89,986.67,286.3Z" transform="translate(-81.46)"/></g></svg>